<?xml version="1.0" encoding="iso-8859-1"?>
<!-- Generator: Adobe Illustrator 19.0.0, SVG Export Plug-In . SVG Version: 6.00 Build 0)  -->
<svg version="1.1" id="Capa_1" xmlns="http://www.w3.org/2000/svg" xmlns:xlink="http://www.w3.org/1999/xlink" x="0px" y="0px"
	 viewBox="0 0 399.201 399.201" style="enable-background:new 0 0 399.201 399.201;" xml:space="preserve">
<g>
	<path d="M17.483,377.231c9.616,0,17.483-7.867,17.483-17.483V237.074L186.488,374.9c3.205,2.914,7.576,4.662,11.656,4.662
		c2.331,0,4.662-0.583,6.993-1.457c6.411-2.914,10.49-9.033,10.49-16.026V234.451L370.063,374.9
		c3.205,2.914,7.576,4.662,11.656,4.662c2.331,0,4.662-0.583,6.993-1.457c6.411-2.914,10.49-9.033,10.49-16.026V37.181
		c0-6.993-4.079-13.112-10.49-16.026c-6.411-2.914-13.695-1.457-18.94,2.914L215.336,164.518V37.181
		c0-6.993-4.079-13.112-10.49-16.026s-13.695-1.457-18.94,2.914L34.967,161.895V39.221c0-9.616-7.867-17.483-17.483-17.483
		S0,29.605,0,39.221v320.527C0,369.364,7.867,377.231,17.483,377.231z M364.235,76.81v245.64L229.322,199.485L364.235,76.81z
		 M180.66,76.81v245.64L45.748,199.485L180.66,76.81z"/>
</g>
<g>
</g>
<g>
</g>
<g>
</g>
<g>
</g>
<g>
</g>
<g>
</g>
<g>
</g>
<g>
</g>
<g>
</g>
<g>
</g>
<g>
</g>
<g>
</g>
<g>
</g>
<g>
</g>
<g>
</g>
</svg>
