<?xml version="1.0" encoding="iso-8859-1"?>
<!-- Generator: Adobe Illustrator 19.0.0, SVG Export Plug-In . SVG Version: 6.00 Build 0)  -->
<svg version="1.1" id="Capa_1" xmlns="http://www.w3.org/2000/svg" xmlns:xlink="http://www.w3.org/1999/xlink" x="0px" y="0px"
	 viewBox="0 0 399.493 399.493" style="enable-background:new 0 0 399.493 399.493;" xml:space="preserve">
<g>
	<path d="M382.01,377.413c9.616,0,17.483-7.867,17.483-17.483V39.403c0-9.616-7.867-17.483-17.483-17.483
		s-17.483,7.867-17.483,17.483v122.674L213.005,24.251c-5.245-4.662-12.53-5.828-18.94-2.914s-10.49,9.033-10.49,16.026v127.628
		L29.43,24.542c-5.245-4.662-12.53-5.828-18.94-2.914S0,30.662,0,37.655v324.606c0,6.993,4.079,13.112,10.49,16.026
		c2.331,0.874,4.662,1.457,6.993,1.457c4.371,0,8.45-1.457,11.656-4.662l154.436-140.449v127.628c0,6.993,4.079,13.112,10.49,16.026
		c2.331,0.874,4.662,1.457,6.993,1.457c4.371,0,8.45-1.457,11.656-4.662l151.522-137.826V359.93
		C364.526,369.546,372.394,377.413,382.01,377.413z M35.258,322.341V76.992l134.913,122.674L35.258,322.341z M218.832,322.341
		V76.992l134.913,122.674L218.832,322.341z"/>
</g>
<g>
</g>
<g>
</g>
<g>
</g>
<g>
</g>
<g>
</g>
<g>
</g>
<g>
</g>
<g>
</g>
<g>
</g>
<g>
</g>
<g>
</g>
<g>
</g>
<g>
</g>
<g>
</g>
<g>
</g>
</svg>
