<?xml version="1.0" encoding="iso-8859-1"?>
<!-- Generator: Adobe Illustrator 19.0.0, SVG Export Plug-In . SVG Version: 6.00 Build 0)  -->
<svg version="1.1" id="Capa_1" xmlns="http://www.w3.org/2000/svg" xmlns:xlink="http://www.w3.org/1999/xlink" x="0px" y="0px"
	 viewBox="0 0 358.407 358.407" style="enable-background:new 0 0 358.407 358.407;" xml:space="preserve">
<g>
	<path d="M139.866,27.682c0-9.616-7.867-17.483-17.483-17.483h-104.9C7.867,10.199,0,18.066,0,27.682v303.043
		c0,9.616,7.867,17.483,17.483,17.483h104.9c9.616,0,17.483-7.867,17.483-17.483V27.682z M104.9,310.328H34.967V45.165H104.9
		V310.328z M358.407,27.682c0-9.616-7.867-17.483-17.483-17.483h-104.9c-9.616,0-17.483,7.867-17.483,17.483v303.043
		c0,9.616,7.867,17.483,17.483,17.483h104.9c9.616,0,17.483-7.867,17.483-17.483V27.682z M323.441,310.328h-69.933V45.165h69.933
		V310.328z"/>
</g>
<g>
</g>
<g>
</g>
<g>
</g>
<g>
</g>
<g>
</g>
<g>
</g>
<g>
</g>
<g>
</g>
<g>
</g>
<g>
</g>
<g>
</g>
<g>
</g>
<g>
</g>
<g>
</g>
<g>
</g>
</svg>
